<svg id="Layer_1" enable-background="new 0 0 256 256" height="512" viewBox="0 0 256 256" width="512" xmlns="http://www.w3.org/2000/svg"><g><g><path d="m149.25 164.635h-75.319c-9.769 0-17.687-7.919-17.687-17.687 0-9.769 7.919-17.687 17.687-17.687h75.319z" fill="#e0ebfc"/></g><g><path d="m149.25 129.26v35.375h52.5l7.75-26.625z" fill="#4671c6"/></g><g><path d="m149.25 166.635h-75.319c-10.856 0-19.688-8.832-19.688-19.688s8.832-19.688 19.688-19.688h75.319c1.104 0 2 .896 2 2v35.375c0 1.105-.896 2.001-2 2.001zm-75.319-35.375c-8.65 0-15.688 7.037-15.688 15.688s7.038 15.688 15.688 15.688h73.319v-31.376z" fill="#3762cc"/></g><g><path d="m201.75 166.635h-52.5c-1.104 0-2-.896-2-2v-35.375c0-.581.252-1.133.691-1.513s1.022-.549 1.596-.467l60.25 8.75c.573.083 1.082.411 1.395.897s.4 1.085.238 1.641l-7.75 26.625c-.248.855-1.03 1.442-1.92 1.442zm-50.5-4h48.999l6.688-22.977-55.687-8.087z" fill="#3762cc"/></g><g><circle cx="79.314" cy="67.74" fill="#a4c9ff" r="30.75"/></g><g><path d="m79.452 87.325c-10.875 0-19.723-8.848-19.723-19.723s8.848-19.722 19.723-19.722 19.722 8.848 19.722 19.723-8.847 19.722-19.722 19.722zm0-35.445c-8.669 0-15.723 7.053-15.723 15.723s7.053 15.723 15.723 15.723 15.722-7.053 15.722-15.723-7.053-15.723-15.722-15.723z" fill="#3762cc"/></g><g><path d="m79.314 100.49c-18.059 0-32.75-14.691-32.75-32.75s14.691-32.75 32.75-32.75 32.75 14.691 32.75 32.75-14.691 32.75-32.75 32.75zm0-61.5c-15.853 0-28.75 12.897-28.75 28.75s12.897 28.75 28.75 28.75 28.75-12.897 28.75-28.75-12.897-28.75-28.75-28.75z" fill="#3762cc"/></g><g><path d="m44.388 119.635h-.388v-1.917c0-1.519-1.231-2.75-2.75-2.75s-2.75 1.231-2.75 2.75v1.917h-6.75v22.498h26.588v-8.547c0-7.705-6.245-13.951-13.95-13.951z" fill="#f9cfcf"/></g><g><path d="m58.338 144.133h-26.588c-1.104 0-2-.896-2-2v-22.497c0-1.104.896-2 2-2h4.75c.044-2.581 2.158-4.667 4.75-4.667 2.619 0 4.749 2.13 4.75 4.748 8.041.811 14.338 7.618 14.338 15.869v8.547c0 1.104-.895 2-2 2zm-24.588-4h22.588v-6.547c0-6.59-5.361-11.95-11.951-11.95h-.387c-1.104 0-2-.896-2-2v-1.917c0-.413-.336-.75-.75-.75s-.75.337-.75.75v1.917c0 1.104-.896 2-2 2h-4.75z" fill="#3762cc"/></g><g><path d="m197.75 186.635h-182.25c-2.209 0-4-1.791-4-4v-14c0-2.209 1.791-4 4-4h182.25c2.209 0 4 1.791 4 4v14c0 2.209-1.791 4-4 4z" fill="#a4c9ff"/></g><g><path d="m181.5 186.635h10.5v24.375h-10.5z" fill="#e0ebfc"/></g><g><path d="m195.75 219.01h-18c-1.105 0-2-.895-2-2v-4c0-1.105.895-2 2-2h18c1.105 0 2 .895 2 2v4c0 1.105-.895 2-2 2z" fill="#a4c9ff"/></g><g><path d="m21.25 186.635h10.5v24.375h-10.5z" fill="#e0ebfc"/></g><g><path d="m35.5 219.01h-18c-1.105 0-2-.895-2-2v-4c0-1.105.895-2 2-2h18c1.105 0 2 .895 2 2v4c0 1.105-.895 2-2 2z" fill="#a4c9ff"/></g><g><path d="m77.167 57.51h-14c-2.209 0-4 1.791-4 4v12c0 1.892 1.318 3.468 3.083 3.884-1.978 70.397-1.75 60.533-1.75 67.532 0 5.339 4.328 9.667 9.667 9.667s9.667-4.328 9.667-9.667c0-7.218.226 2.784-1.75-67.532 1.765-.416 3.083-1.992 3.083-3.884v-12c0-2.209-1.791-4-4-4z" fill="#f9cfcf"/></g><g><path d="m31.75 142.135v-22.5c-11.184 0-20.25 9.066-20.25 20.25v4.5c0 11.184 9.066 20.25 20.25 20.25h4.089c12.426 0 22.5-10.074 22.5-22.5z" fill="#4671c6"/></g><g><path d="m40.407 125.981c0 1.054-.854 1.908-1.908 1.908h-2.035c-1.054 0-1.908-.854-1.908-1.908 0-1.054.854-1.908 1.908-1.908h2.035c1.054 0 1.908.854 1.908 1.908z" fill="#3762cc"/></g><g><path d="m35.838 166.636h-4.088c-12.269 0-22.25-9.981-22.25-22.25v-4.5c0-12.269 9.981-22.25 22.25-22.25 1.104 0 2 .896 2 2v20.5h24.588c1.104 0 2 .896 2 2 0 13.51-10.99 24.5-24.5 24.5zm-6.088-44.892c-9.126.999-16.25 8.754-16.25 18.142v4.5c0 10.063 8.187 18.25 18.25 18.25h4.088c10.629 0 19.395-8.131 20.403-18.5h-24.491c-1.104 0-2-.896-2-2z" fill="#3762cc"/></g><g><circle cx="41.556" cy="142.133" fill="#f9cfcf" r="6.333"/></g><g><path d="m70.167 156.594c-6.433 0-11.667-5.233-11.667-11.667l-.005-1.767c-.015-3.143-.015-3.143.797-31.849l.919-32.585c-1.851-1.039-3.045-3.004-3.045-5.216v-12c0-3.309 2.691-6 6-6h14c3.309 0 6 2.691 6 6v12c0 2.212-1.194 4.177-3.044 5.216l.972 34.424c.758 26.779.758 26.779.745 29.961l-.005 1.815c-.001 6.434-5.234 11.668-11.667 11.668zm-7-97.083c-1.103 0-2 .897-2 2v12c0 .927.634 1.724 1.542 1.938.924.217 1.567 1.054 1.541 2.003l-.958 33.974c-.81 28.64-.81 28.64-.796 31.717l.005 1.785c0 4.228 3.439 7.667 7.667 7.667s7.667-3.439 7.667-7.667l.005-1.833c.014-3.116.014-3.116-.743-29.83l-1.011-35.813c-.027-.949.617-1.785 1.54-2.003.908-.214 1.542-1.011 1.542-1.938v-12c0-1.103-.897-2-2-2h-14.001z" fill="#3762cc"/></g><g><path d="m197.75 188.635h-182.25c-3.309 0-6-2.691-6-6v-14c0-3.309 2.691-6 6-6h182.25c3.309 0 6 2.691 6 6v14c0 3.308-2.691 6-6 6zm-182.25-22c-1.103 0-2 .897-2 2v14c0 1.103.897 2 2 2h182.25c1.103 0 2-.897 2-2v-14c0-1.103-.897-2-2-2z" fill="#3762cc"/></g><g><path d="m192 213.01h-10.5c-1.104 0-2-.896-2-2v-24.375c0-1.104.896-2 2-2h10.5c1.104 0 2 .896 2 2v24.375c0 1.104-.896 2-2 2zm-8.5-4h6.5v-20.375h-6.5z" fill="#3762cc"/></g><g><path d="m195.75 221.01h-18c-2.206 0-4-1.794-4-4v-4c0-2.206 1.794-4 4-4h18c2.206 0 4 1.794 4 4v4c0 2.206-1.794 4-4 4zm-18-8v4h18.003l-.003-4z" fill="#3762cc"/></g><g><path d="m31.75 213.01h-10.5c-1.104 0-2-.896-2-2v-24.375c0-1.104.896-2 2-2h10.5c1.104 0 2 .896 2 2v24.375c0 1.104-.896 2-2 2zm-8.5-4h6.5v-20.375h-6.5z" fill="#3762cc"/></g><g><path d="m35.5 221.01h-18c-2.206 0-4-1.794-4-4v-4c0-2.206 1.794-4 4-4h18c2.206 0 4 1.794 4 4v4c0 2.206-1.794 4-4 4zm-18-8v4h18.003l-.003-4z" fill="#3762cc"/></g><g><circle cx="79.314" cy="67.74" fill="#4671c6" r="6.22"/></g><g><path d="m79.314 75.959c-4.532 0-8.22-3.687-8.22-8.219s3.688-8.22 8.22-8.22 8.22 3.688 8.22 8.22-3.688 8.219-8.22 8.219zm0-12.438c-2.327 0-4.22 1.893-4.22 4.22 0 2.326 1.893 4.219 4.22 4.219s4.22-1.893 4.22-4.219c0-2.328-1.893-4.22-4.22-4.22z" fill="#3762cc"/></g><g><path d="m209.5 138.01-7.75 26.625 11.367 40.522h16.058c-4.276-30.263-6.593-46.6-7.848-55.419-.87-6.117-5.702-10.907-11.827-11.728z" fill="#f9cfcf"/></g><g><path d="m229.176 207.157h-16.059c-.896 0-1.684-.597-1.926-1.46l-11.367-40.521c-.101-.359-.099-.74.006-1.099l7.75-26.625c.276-.95 1.21-1.553 2.186-1.424 6.981.936 12.55 6.457 13.542 13.429 1.256 8.819 3.572 25.155 7.849 55.42.081.574-.091 1.154-.471 1.592s-.931.688-1.51.688zm-14.542-4h12.239c-4.071-28.809-6.302-44.542-7.526-53.137-.659-4.637-4.029-8.414-8.442-9.679l-7.074 24.304z" fill="#3762cc"/></g><g><path d="m213.117 205.157-1.617 5.853v5.125c0 1.588 1.287 2.875 2.875 2.875h26.267c2.13 0 3.858-1.727 3.858-3.858 0-1.465-.83-2.804-2.143-3.456l-13.181-6.54h-16.059z" fill="#e0ebfc"/></g><g><path d="m240.643 221.01h-26.268c-2.688 0-4.875-2.187-4.875-4.875v-5.125c0-.18.024-.359.072-.532l1.617-5.853c.239-.867 1.028-1.468 1.928-1.468h16.059c.309 0 .612.071.889.208l13.181 6.54c2.008.996 3.255 3.007 3.255 5.247-.001 3.23-2.629 5.858-5.858 5.858zm-27.143-9.729v4.854c0 .482.393.875.875.875h26.268c1.024 0 1.857-.833 1.857-1.857 0-.71-.396-1.348-1.032-1.663l-12.761-6.332h-14.067z" fill="#3762cc"/></g></g></svg>