<svg id="icons" enable-background="new 0 0 64 64" height="512" viewBox="0 0 64 64" width="512" xmlns="http://www.w3.org/2000/svg"><g><g><path d="m57 10.99 6 10.5h-6l-6-10.5z" fill="#5c9eff"/></g><g><path d="m19 32.01 6 10.5-6 10.5h-6-6l-6-10.5 6-10.5h6z" fill="#94c1ff"/></g><g><path d="m31 42.51-2 3.5-4 7h-6l6-10.5z" fill="#5c9eff"/></g><g><path d="m31 21.49-2 3.5-4 7h-6l6-10.5z" fill="#5c9eff"/></g><g><path d="m45 17.99c1.93 0 3.5 1.57 3.5 3.5s-1.57 3.5-3.5 3.5h-10-6l2-3.5-2-3.5h6z" fill="#d7e9ff"/></g><g><path d="m29 39.01 2 3.5h-6l-6-10.5h6z" fill="#5c9eff"/></g><g><path d="m51 10.99 6 10.5-6 10.5h-6-6l-4-7h10c1.93 0 3.5-1.57 3.5-3.5s-1.57-3.5-3.5-3.5h-10l4-7h6z" fill="#94c1ff"/></g><g><path d="m63 42.51-6 10.5h-6l6-10.5z" fill="#5c9eff"/></g><g><path d="m63 21.49-6 10.5h-6l6-10.5z" fill="#5c9eff"/></g><g><path d="m35.01 46.01h-6.01l2-3.5-2-3.5h6 10c1.93 0 3.5 1.57 3.5 3.5s-1.57 3.5-3.5 3.5z" fill="#d7e9ff"/></g><g><path d="m29 17.99 2 3.5h-6l-6-10.5h6z" fill="#5c9eff"/></g><g><path d="m51 32.01 6 10.5-6 10.5h-6-6l-3.99-7h9.99c1.93 0 3.5-1.57 3.5-3.5s-1.57-3.5-3.5-3.5h-10l4-7h6z" fill="#94c1ff"/></g><g><path d="m57 32.01 6 10.5h-6l-6-10.5z" fill="#5c9eff"/></g><g><path d="m19 10.99 6 10.5-6 10.5h-6-6l-6-10.5 6-10.5h6z" fill="#94c1ff"/></g></g><g><g><g><g><path d="m19 32.99h-12c-.358 0-.69-.192-.868-.504l-6-10.5c-.176-.308-.176-.685 0-.992l6-10.5c.178-.311.51-.504.868-.504h12c.358 0 .69.192.868.504l6 10.5c.176.308.176.685 0 .992l-6 10.5c-.178.312-.51.504-.868.504zm-11.42-2h10.84l5.429-9.5-5.429-9.5h-10.84l-5.429 9.5z" fill="#116fff"/></g><g><path d="m25 32.99h-12c-.553 0-1-.447-1-1s.447-1 1-1h11.42l5.429-9.5-5.429-9.5h-11.42c-.553 0-1-.447-1-1s.447-1 1-1h12c.358 0 .69.192.868.504l6 10.5c.176.308.176.685 0 .992l-6 10.5c-.178.312-.51.504-.868.504z" fill="#116fff"/></g><g><path d="m31 22.49h-6c-.553 0-1-.447-1-1s.447-1 1-1h6c.553 0 1 .447 1 1s-.447 1-1 1z" fill="#116fff"/></g></g><g><g><path d="m51 32.99h-12c-.358 0-.69-.192-.868-.504l-4.002-7.004c-.274-.479-.107-1.091.372-1.364.479-.276 1.09-.107 1.364.372l3.714 6.5h10.84l5.429-9.5-5.429-9.5h-10.84l-3.712 6.496c-.274.479-.885.647-1.364.372-.479-.274-.646-.885-.372-1.364l4-7c.178-.311.51-.504.868-.504h12c.358 0 .69.192.868.504l6 10.5c.176.308.176.685 0 .992l-6 10.5c-.178.312-.51.504-.868.504z" fill="#116fff"/></g><g><path d="m57 32.99h-12c-.553 0-1-.447-1-1s.447-1 1-1h11.42l5.429-9.5-5.429-9.5h-11.42c-.553 0-1-.447-1-1s.447-1 1-1h12c.358 0 .69.192.868.504l6 10.5c.176.308.176.685 0 .992l-6 10.5c-.178.312-.51.504-.868.504z" fill="#116fff"/></g><g><path d="m63 22.49h-6c-.553 0-1-.447-1-1s.447-1 1-1h6c.553 0 1 .447 1 1s-.447 1-1 1z" fill="#116fff"/></g></g><g><path d="m45 25.99c-.553 0-1-.447-1-1s.447-1 1-1c1.379 0 2.5-1.121 2.5-2.5s-1.121-2.5-2.5-2.5c-.553 0-1-.447-1-1s.447-1 1-1c2.481 0 4.5 2.019 4.5 4.5s-2.019 4.5-4.5 4.5z" fill="#116fff"/></g><g><path d="m45 18.99h-16c-.553 0-1-.447-1-1s.447-1 1-1h16c.553 0 1 .447 1 1s-.447 1-1 1z" fill="#116fff"/></g><g><path d="m45 25.99h-16c-.553 0-1-.447-1-1s.447-1 1-1h16c.553 0 1 .447 1 1s-.447 1-1 1z" fill="#116fff"/></g></g><g><g><path d="m19 54.01h-12c-.358 0-.69-.192-.868-.504l-6-10.5c-.176-.308-.176-.685 0-.992l6-10.5c.178-.312.51-.504.868-.504h12c.358 0 .69.192.868.504l6 10.5c.176.308.176.685 0 .992l-6 10.5c-.178.311-.51.504-.868.504zm-11.42-2h10.84l5.429-9.5-5.429-9.5h-10.84l-5.429 9.5z" fill="#116fff"/></g><g><path d="m25 54.01h-12c-.553 0-1-.447-1-1s.447-1 1-1h11.42l5.429-9.5-5.429-9.5h-11.42c-.553 0-1-.447-1-1s.447-1 1-1h12c.358 0 .69.192.868.504l6 10.5c.176.308.176.685 0 .992l-6 10.5c-.178.311-.51.504-.868.504z" fill="#116fff"/></g><g><path d="m31 43.51h-6c-.553 0-1-.447-1-1s.447-1 1-1h6c.553 0 1 .447 1 1s-.447 1-1 1z" fill="#116fff"/></g></g><g><g><path d="m51 54.01h-12c-.358 0-.69-.192-.868-.504l-4.002-7.004c-.274-.479-.107-1.091.372-1.364.479-.276 1.09-.108 1.364.372l3.714 6.5h10.84l5.429-9.5-5.429-9.5h-10.84l-3.712 6.496c-.274.479-.885.647-1.364.372-.479-.274-.646-.885-.372-1.364l4-7c.178-.312.51-.504.868-.504h12c.358 0 .69.192.868.504l6 10.5c.176.308.176.685 0 .992l-6 10.5c-.178.311-.51.504-.868.504z" fill="#116fff"/></g><g><path d="m57 54.01h-12c-.553 0-1-.447-1-1s.447-1 1-1h11.42l5.429-9.5-5.429-9.5h-11.42c-.553 0-1-.447-1-1s.447-1 1-1h12c.358 0 .69.192.868.504l6 10.5c.176.308.176.685 0 .992l-6 10.5c-.178.311-.51.504-.868.504z" fill="#116fff"/></g><g><path d="m63 43.51h-6c-.553 0-1-.447-1-1s.447-1 1-1h6c.553 0 1 .447 1 1s-.447 1-1 1z" fill="#116fff"/></g></g><g><path d="m45 47.01c-.553 0-1-.447-1-1s.447-1 1-1c1.379 0 2.5-1.121 2.5-2.5s-1.121-2.5-2.5-2.5c-.553 0-1-.447-1-1s.447-1 1-1c2.481 0 4.5 2.019 4.5 4.5s-2.019 4.5-4.5 4.5z" fill="#116fff"/></g><g><path d="m45 40.01h-16c-.553 0-1-.447-1-1s.447-1 1-1h16c.553 0 1 .447 1 1s-.447 1-1 1z" fill="#116fff"/></g><g><path d="m45 47.01h-16c-.553 0-1-.447-1-1s.447-1 1-1h16c.553 0 1 .447 1 1s-.447 1-1 1z" fill="#116fff"/></g></g></svg>