<svg id="Layer_1" enable-background="new 0 0 512 512" height="512" viewBox="0 0 512 512" width="512" xmlns="http://www.w3.org/2000/svg"><g fill="#8bc4ff"><path d="m152.347 437.031c51.766-27.251 92.025-42.007 119.527-56.039 28.801 10.016 23.397 1.23 102.657 8.428l-4.44 38.92h35.3c8.306-40.275 6.021-29.194 9.74-47.23 2.92-14.18-5.12-28.36-18.8-33.12-.04-.01-.07-.03-.12-.04-46.05-15.98-22.04-5.93-81.36-20.49-14.93-24.33 8.4-58.85 8.4-75.66 0-28.89-39.69-52.78-58.84-66.9v8.05c0 14.348-16.85 21.99-27.66 12.84 1.797 17.182 10.893 113.164 10.838 113.264-25.213 16.808-9.833 4.621-107.392 86.622z"/><path d="m264.41 90.641v41.48l.95-1.79c15.7 0 29.33-8.55 36.25-21.12-7.235-12.715-22.079-20.325-37.2-18.57z"/><path d="m211.05 94.75-4.55 12.92c-5.083 14.396 10.591 27.39 24.28 20.36v-44.27c-8.35-1.679-16.88 2.91-19.73 10.99z"/></g><path d="m8 512h496c4.418 0 8-3.582 8-8s-3.582-8-8-8h-64.574c-2.809-10.013-10.762-18.03-21.252-20.651l-13.605-3.403 18.396-89.218c3.806-18.482-7.131-36.623-24.128-42.335-45.72-15.866-24.333-6.689-78.606-19.855-5.718-12.781.021-29.608 5.13-44.576 7.265-21.282 17.053-43.601-36.392-83.281 14.374-1.983 25.471-14.103 25.471-28.72 0-39.634 1.53-45.538-5.877-58.707-6.793-12.076-20.099-21.41-36.153-22.691v-57.322c0-13.714-10.973-25.241-24.83-25.241-24.532 0-32.233 32.811-16.8 32.811 4.418 0 8-3.582 8-8 0-4.869 3.938-8.847 8.89-8.81 4.819.036 8.74 4.181 8.74 9.24v167.71c0 7.071 8.517 10.625 13.559 5.746 18.815 13.317 45.281 32.756 45.281 53.104 0 14.684-24.509 51.717-7.228 79.828.509.828 1.26 1.697 2.273 2.4 3.569 2.472 39.594 9.423 45.387 10.42 9.986 1.719 13.021 2.454 38.019 11.098 9.855 3.429 15.699 13.727 13.594 23.95l-8.422 40.843h-19.825l3.425-30.018c.508-4.456-2.751-8.468-7.226-8.874-42.539-3.859-54.72-3.143-77.425-3.143-8.162 0-23.52-4.292-29.738-7.512-14.939-7.733-18.905-29.204-15.233-43.024 28.468 3.558 26.439 3.331 27.159 3.331 3.976 0 7.422-2.961 7.928-7.009.548-4.384-2.563-8.382-6.946-8.931l-26.036-3.253c-.535-5.705-1.386-14.772-2.381-25.338-.415-4.399-4.321-7.63-8.715-7.215-4.399.415-7.629 4.316-7.215 8.715 1.096 11.636 2.017 21.449 2.533 26.957-20.197 13.311-12.004 7.089-103.749 84.212l-52.928 35.312c-9.749 6.504-13.601 18.679-9.366 29.607 11.466 29.59 10.853 28.471 12.888 31.843h-78.023c-4.418 0-8 3.582-8 8s3.582 8 8 8zm290.44-348.04c0 7.174-6.11 13.01-13.62 13.01-4.238 0-8.391-.562-12.41-1.65 0-41.665-.274-37.447.64-37.588 9.69-1.496 18.464-5.75 25.358-11.881.046.966.032-1.623.032 38.109zm-6.433-54.638c-4.585 6.015-11.386 10.51-19.451 12.238-.217.046-.145 1.823-.145-22.92 7.916.963 14.854 4.901 19.596 10.682zm103.568 327.018-8.225 39.889c-.866 4.2 1.733 8.336 5.894 9.376 20.96 5.243 24.841 5.139 28.689 10.395h-43.517c-2.733 0-5.265-1.235-6.947-3.39-3.334-4.271-1.73-7.058 1.581-20.297.184-.737-.172 2.109 4.173-35.974h18.352zm-29.929-39.672c-9.583 83.998-7.228 68.204-11.303 84.5-1.253 5.013-.916 10.156.871 14.832h-224.649l-5.579-32.06 31.353-19.968c49.537-26.059 88.377-40.544 116.171-54.351 27.83 8.722 25.545 1.343 93.136 7.047zm-130.066-59.914c-.328 16.189 5.828 33.694 18.534 43.919-24.789 11.432-57.594 24.615-97.532 45.139l-6.855-17.689c62.825-52.826 76.107-64.291 85.853-71.369zm-137.211 148.242-10.314-26.618c-1.504-3.881-.136-8.206 3.327-10.516l44.961-29.997 6.178 15.94-30.628 19.506c-2.724 1.735-4.138 4.938-3.584 8.119l6.016 34.57c-6.597 0-13.251-4.024-15.956-11.004z" fill="#2e58ff"/><path d="m219.627 27.564c-3.124-3.124-8.189-3.124-11.313 0-3.125 3.124-3.125 8.189 0 11.313 15.46 15.46 14.466 16.455 14.466 36.97-8.689 1.589-16.233 7.619-19.276 16.245l-4.547 12.914c-5.672 16.066 6.428 32.938 23.823 32.966v54.978c0 6.164 2.232 11.981 6.309 16.532.403 3.961.92 9.228 1.52 15.357.429 4.383 4.329 7.614 8.741 7.183 4.397-.431 7.613-4.344 7.183-8.741-2.162-22.082-1.336-20.255-5.175-24.098-1.662-1.662-2.577-3.875-2.577-6.233 0-31.555 0-107.94 0-127.54-.001-18.693-8.035-26.727-19.154-37.846zm-5.581 82.764c4.634-13.16 4.691-15.57 8.734-17.765v29.394c-6.313-.013-10.75-5.92-8.734-11.629z" fill="#2e58ff"/><path d="m240.284 248.035c-4.26.727-7.413 4.797-6.487 9.571.839 4.32 5.021 7.172 9.378 6.329 4.125-.801 7.139-4.732 6.341-9.36-.743-4.357-4.882-7.289-9.232-6.54z" fill="#2e58ff"/></svg>